<?xml version="1.0" encoding="utf-8"?>
<!-- Generator: Adobe Illustrator 17.0.0, SVG Export Plug-In . SVG Version: 6.00 Build 0)  -->
<!DOCTYPE svg PUBLIC "-//W3C//DTD SVG 1.1//EN" "http://www.w3.org/Graphics/SVG/1.1/DTD/svg11.dtd">
<svg version="1.1" id="图层_1" xmlns="http://www.w3.org/2000/svg" xmlns:xlink="http://www.w3.org/1999/xlink" x="0px" y="0px"
	 width="218.25px" height="50px" viewBox="0 0 218.25 50" enable-background="new 0 0 218.25 50" xml:space="preserve">
<g>
	<g>
		<path fill="#FFFFFF" d="M29.096,27.933h-15.11c-0.649,0-1.238,0.261-1.665,0.682s-0.691,1.003-0.691,1.642
			c0,0.64,0.265,1.222,0.691,1.643c0.427,0.421,1.016,0.682,1.665,0.682h15.11h0.147v0.145v5.566h4.717V23.092v-0.064V23.02l0,0
			c-0.002-2.16-0.896-4.121-2.337-5.541s-3.428-2.3-5.617-2.3h-3.927v0.001h-0.147c-4.409,0-8.404,1.402-11.275,3.904
			c-2.726,2.376-4.439,5.749-4.528,9.858l-0.003,0.143H6.125v0.048v0.122v0.001c0,0.001,0,0.001,0,0.001v0.001v0.001v0.001v0.001
			v0.001c0,0.001,0,0.001,0,0.001v0.001c0,0,0,0,0,0.001v0.001v0.001v0.001c0,0.001,0,0.001,0,0.001l0,0v0.01v9.018h4.713v-8.873
			v-0.145v-0.001v-0.145h0.001c0.038-2.842,1.189-5.091,3.044-6.667c2.025-1.721,4.888-2.635,8.049-2.635l4.074,0.004h0.001
			c0.885,0.007,1.696,0.369,2.285,0.948c0.585,0.576,0.951,1.367,0.951,2.238v4.768v0.145L29.096,27.933 M6.125,29.268L6.125,29.268
			L6.125,29.268 M6.125,29.265L6.125,29.265L6.125,29.265c0,0.002,0,0.002,0,0.002C6.125,29.266,6.125,29.266,6.125,29.265
			L6.125,29.265L6.125,29.265 M6.125,29.255C6.125,29.256,6.125,29.256,6.125,29.255v0.002v0.001v0.001v0.001v0.001
			c0,0.001,0,0.001,0,0.001v0.001c0,0,0,0,0,0.001v0.001v-0.001c0-0.001,0-0.001,0-0.001v-0.001c0,0,0,0,0-0.001V29.26v0v-0.001
			v-0.001v-0.001C6.125,29.256,6.125,29.256,6.125,29.255L6.125,29.255L6.125,29.255 M6.125,29.255
			C6.125,29.256,6.125,29.256,6.125,29.255v0.002v0.001v0.001v0.001v0.001c0,0.001,0,0.001,0,0.001v0.001c0,0,0,0,0,0.001v0.001
			v0.001v0.001c0,0.001,0,0.001,0,0.001l0,0l0,0c0-0.001,0-0.001,0-0.001v-0.001v-0.001v-0.001c0-0.001,0-0.001,0-0.001v-0.001
			c0,0,0,0,0-0.001V29.26v0v-0.001v-0.001v-0.001C6.125,29.256,6.125,29.256,6.125,29.255L6.125,29.255L6.125,29.255"/>
		<path fill="#FFFFFF" d="M124.68,33.641h-21.967l-2.029-0.003v1.624v0.59c0,0.636,0.265,1.283,0.742,1.752
			c0.423,0.415,1.017,0.691,1.746,0.691h21.562c0.6,0,1.214-0.28,1.673-0.722c0.434-0.417,0.724-0.976,0.724-1.574v-0.327
			c0-0.592-0.289-0.907-0.74-1.331C125.939,33.915,125.327,33.641,124.68,33.641L124.68,33.641z"/>
		<path fill="#FFFFFF" d="M157.9,22.774l-0.068-2.102l-0.912-1.898l-1.432-1.373l-1.427-1.368l-1.943-0.847l-2.137-0.008h-0.098
			h-11.781h-0.147l-2.141,0.004l-1.946,0.845l-1.43,1.369l-1.433,1.374l-0.914,1.899l-0.068,2.104l-0.004,0.141l0,0v0.112v7.355
			v0.064v0.009l0,0l0.002,2.148l0.885,1.951l1.427,1.418l1.428,1.419l1.972,0.886l2.175,0.017l0.147,0.001l0,0h11.762l0,0
			l0.147-0.001l2.187-0.003l1.985-0.881l1.438-1.419l1.439-1.42l0.893-1.959l0.002-2.158v-0.145h0.001v-7.282v-0.112h-0.001
			L157.9,22.774 M149.953,19.833l0.883,0.007l0.801,0.361l0.58,0.577l0.579,0.577l0.359,0.793v0.872v7.436v0.872l-0.359,0.793
			l-0.579,0.577l-0.548,0.545l-0.745,0.352l-0.825,0.043v0.005h-0.147H137.97h-0.147v-0.005c-0.825-0.043-1.57-0.394-2.118-0.94
			l-0.547-0.544l-0.35-0.737l-0.038-0.816h-0.003v-0.145l0,0v-0.145v-7.29v-0.872l0.359-0.793l0.579-0.577l0.58-0.577l0.801-0.361
			l0.883-0.007h0.001h11.981h0.002"/>
		<polygon fill="#FFFFFF" points="190.297,15.179 185.58,15.179 185.58,31.684 185.578,31.699 185.519,32.244 185.315,32.686 
			184.991,33.014 184.662,33.348 184.212,33.56 183.666,33.638 183.645,33.639 183.046,33.639 182.599,33.501 182.257,33.264 
			181.918,33.028 181.686,32.697 181.513,32.309 174.901,19.766 174.896,19.755 174.296,18.327 173.41,17.148 172.24,16.346 
			171.152,15.6 169.816,15.178 168.233,15.182 166.57,15.182 164.939,15.868 163.708,17.044 162.546,18.155 161.741,19.705 
			161.601,21.529 161.601,22.056 161.601,38.295 166.318,38.295 166.318,21.973 166.317,21.346 166.548,20.837 166.895,20.473 
			167.294,20.054 167.846,19.826 168.371,19.826 168.895,19.826 169.326,19.985 169.66,20.222 170.062,20.507 170.321,20.907 
			170.436,21.285 177.011,33.742 177.016,33.754 177.569,35.083 178.44,36.296 179.683,37.132 180.752,37.852 182.098,38.294 
			183.759,38.294 185.436,38.294 187.046,37.522 188.248,36.373 189.49,35.188 190.297,33.602 190.297,32.054 		"/>
		<path fill="#FFFFFF" d="M57.53,27.93L57.53,27.93H45.511c-0.65,0-1.239,0.261-1.667,0.683c-0.427,0.422-0.692,1.003-0.692,1.644
			c0,0.641,0.265,1.223,0.692,1.644c0.427,0.422,1.017,0.684,1.667,0.684H57.53h0.001c2.186-0.001,4.17-0.878,5.61-2.294
			s2.336-3.372,2.344-5.528V24.68v-1.515V23.02c-0.002-2.156-0.893-4.113-2.328-5.533c-1.435-1.419-3.417-2.303-5.601-2.31h-0.118
			H42.51h-2.52c-0.318,0-0.608,0.061-0.867,0.168c-0.284,0.117-0.531,0.288-0.738,0.492c-0.233,0.231-0.415,0.501-0.54,0.784
			c-0.129,0.291-0.196,0.593-0.196,0.875v20.797h4.714V20.357v-0.378v-0.145h0.147h15.02h0.001c0.884,0.006,1.685,0.367,2.265,0.944
			c0.58,0.577,0.939,1.37,0.939,2.242H60.63v0.001h0.105v1.723v0.145h-0.003c-0.038,0.815-0.388,1.552-0.935,2.097
			C59.216,27.563,58.414,27.923,57.53,27.93L57.53,27.93L57.53,27.93z"/>
		<path fill="#FFFFFF" d="M100.694,22.503L100.694,22.503c0-3.797,3.396-7.324,7.562-7.324h16.441c0.597,0,1.164,0.255,1.591,0.629
			c0.45,0.394,0.738,0.913,0.738,1.4v0.539c0,0.512-0.292,1.03-0.72,1.427c-0.437,0.406-1.007,0.677-1.539,0.677l-16.716-0.018
			c-1.298,0.092-2.338,1.318-2.424,2.505c0-0.002,0,0.996,0,2.102v0.348h0.382h18.657c0.593,0,1.149,0.258,1.573,0.619
			c0.481,0.408,0.787,1.095,0.787,1.523v0.414c0,0.508-0.278,1.046-0.706,1.453c-0.403,0.384-0.935,0.644-1.484,0.644h-22.122
			h-2.021v-1.844v-0.021v-0.787v-4.286H100.694z"/>
		<path fill="#FFFFFF" d="M89.064,27.93L89.064,27.93H77.045c-0.65,0-1.239,0.261-1.667,0.683c-0.427,0.422-0.692,1.003-0.692,1.644
			c0,0.641,0.265,1.223,0.692,1.644c0.427,0.422,1.017,0.684,1.667,0.684h12.018h0.001c2.186-0.001,4.17-0.878,5.61-2.294
			s2.336-3.372,2.344-5.528V24.68v-1.515V23.02c-0.002-2.156-0.893-4.113-2.328-5.533c-1.436-1.419-3.417-2.303-5.601-2.31h-0.118
			H74.043h-2.52c-0.318,0-0.608,0.061-0.867,0.168c-0.284,0.117-0.531,0.288-0.738,0.492c-0.233,0.231-0.415,0.501-0.54,0.784
			c-0.129,0.291-0.196,0.593-0.196,0.875v20.797h4.714V20.357v-0.378v-0.145h0.147h15.02h0.001c0.884,0.006,1.685,0.367,2.265,0.944
			c0.579,0.577,0.939,1.37,0.939,2.242h-0.105v0.001h0.105v1.723v0.145h-0.003c-0.038,0.815-0.388,1.552-0.935,2.097
			c-0.58,0.577-1.381,0.938-2.264,0.945L89.064,27.93L89.064,27.93z"/>
	</g>
	<g>
		<path fill="#FFFFFF" d="M29.096,27.933h-15.11c-0.649,0-1.238,0.261-1.665,0.682s-0.691,1.003-0.691,1.642
			c0,0.64,0.265,1.222,0.691,1.643c0.427,0.421,1.016,0.682,1.665,0.682h15.11h0.147v0.145v5.566h4.717V23.092v-0.064V23.02l0,0
			c-0.002-2.16-0.896-4.121-2.337-5.541s-3.428-2.3-5.617-2.3h-3.927v0.001h-0.147c-4.409,0-8.404,1.402-11.275,3.904
			c-2.726,2.376-4.439,5.749-4.528,9.858l-0.003,0.143H6.125v0.048v0.122v0.001c0,0.001,0,0.001,0,0.001v0.001v0.001v0.001v0.001
			v0.001c0,0.001,0,0.001,0,0.001v0.001c0,0,0,0,0,0.001v0.001v0.001v0.001c0,0.001,0,0.001,0,0.001l0,0v0.01v9.018h4.713v-8.873
			v-0.145v-0.001v-0.145h0.001c0.038-2.842,1.189-5.091,3.044-6.667c2.025-1.721,4.888-2.635,8.049-2.635l4.074,0.004h0.001
			c0.885,0.007,1.696,0.369,2.285,0.948c0.585,0.576,0.951,1.367,0.951,2.238v4.768v0.145L29.096,27.933 M6.125,29.268L6.125,29.268
			L6.125,29.268 M6.125,29.265L6.125,29.265L6.125,29.265c0,0.002,0,0.002,0,0.002C6.125,29.266,6.125,29.266,6.125,29.265
			L6.125,29.265L6.125,29.265 M6.125,29.255C6.125,29.256,6.125,29.256,6.125,29.255v0.002v0.001v0.001v0.001v0.001
			c0,0.001,0,0.001,0,0.001v0.001c0,0,0,0,0,0.001v0.001v-0.001c0-0.001,0-0.001,0-0.001v-0.001c0,0,0,0,0-0.001V29.26v0v-0.001
			v-0.001v-0.001C6.125,29.256,6.125,29.256,6.125,29.255L6.125,29.255L6.125,29.255 M6.125,29.255
			C6.125,29.256,6.125,29.256,6.125,29.255v0.002v0.001v0.001v0.001v0.001c0,0.001,0,0.001,0,0.001v0.001c0,0,0,0,0,0.001v0.001
			v0.001v0.001c0,0.001,0,0.001,0,0.001l0,0l0,0c0-0.001,0-0.001,0-0.001v-0.001v-0.001v-0.001c0-0.001,0-0.001,0-0.001v-0.001
			c0,0,0,0,0-0.001V29.26v0v-0.001v-0.001v-0.001C6.125,29.256,6.125,29.256,6.125,29.255L6.125,29.255L6.125,29.255"/>
		<path fill="#FFFFFF" d="M124.68,33.641h-21.967l-2.029-0.003v1.624v0.59c0,0.636,0.265,1.283,0.742,1.752
			c0.423,0.415,1.017,0.691,1.746,0.691h21.562c0.6,0,1.214-0.28,1.673-0.722c0.434-0.417,0.724-0.976,0.724-1.574v-0.327
			c0-0.592-0.289-0.907-0.74-1.331C125.939,33.915,125.327,33.641,124.68,33.641L124.68,33.641z"/>
		<path fill="#FFFFFF" d="M157.9,22.774l-0.068-2.102l-0.912-1.898l-1.432-1.373l-1.427-1.368l-1.943-0.847l-2.137-0.008h-0.098
			h-11.781h-0.147l-2.141,0.004l-1.946,0.845l-1.43,1.369l-1.433,1.374l-0.914,1.899l-0.068,2.104l-0.004,0.141l0,0v0.112v7.355
			v0.064v0.009l0,0l0.002,2.148l0.885,1.951l1.427,1.418l1.428,1.419l1.972,0.886l2.175,0.017l0.147,0.001l0,0h11.762l0,0
			l0.147-0.001l2.187-0.003l1.985-0.881l1.438-1.419l1.439-1.42l0.893-1.959l0.002-2.158v-0.145h0.001v-7.282v-0.112h-0.001
			L157.9,22.774 M149.953,19.833l0.883,0.007l0.801,0.361l0.58,0.577l0.579,0.577l0.359,0.793v0.872v7.436v0.872l-0.359,0.793
			l-0.579,0.577l-0.548,0.545l-0.745,0.352l-0.825,0.043v0.005h-0.147H137.97h-0.147v-0.005c-0.825-0.043-1.57-0.394-2.118-0.94
			l-0.547-0.544l-0.35-0.737l-0.038-0.816h-0.003v-0.145l0,0v-0.145v-7.29v-0.872l0.359-0.793l0.579-0.577l0.58-0.577l0.801-0.361
			l0.883-0.007h0.001h11.981h0.002"/>
		<polygon fill="#FFFFFF" points="190.297,15.179 185.58,15.179 185.58,31.684 185.578,31.699 185.519,32.244 185.315,32.686 
			184.991,33.014 184.662,33.348 184.212,33.56 183.666,33.638 183.645,33.639 183.046,33.639 182.599,33.501 182.257,33.264 
			181.918,33.028 181.686,32.697 181.513,32.309 174.901,19.766 174.896,19.755 174.296,18.327 173.41,17.148 172.24,16.346 
			171.152,15.6 169.816,15.178 168.233,15.182 166.57,15.182 164.939,15.868 163.708,17.044 162.546,18.155 161.741,19.705 
			161.601,21.529 161.601,22.056 161.601,38.295 166.318,38.295 166.318,21.973 166.317,21.346 166.548,20.837 166.895,20.473 
			167.294,20.054 167.846,19.826 168.371,19.826 168.895,19.826 169.326,19.985 169.66,20.222 170.062,20.507 170.321,20.907 
			170.436,21.285 177.011,33.742 177.016,33.754 177.569,35.083 178.44,36.296 179.683,37.132 180.752,37.852 182.098,38.294 
			183.759,38.294 185.436,38.294 187.046,37.522 188.248,36.373 189.49,35.188 190.297,33.602 190.297,32.054 		"/>
		<path fill="#FFFFFF" d="M57.53,27.93L57.53,27.93H45.511c-0.65,0-1.239,0.261-1.667,0.683c-0.427,0.422-0.692,1.003-0.692,1.644
			c0,0.641,0.265,1.223,0.692,1.644c0.427,0.422,1.017,0.684,1.667,0.684H57.53h0.001c2.186-0.001,4.17-0.878,5.61-2.294
			s2.336-3.372,2.344-5.528V24.68v-1.515V23.02c-0.002-2.156-0.893-4.113-2.328-5.533c-1.435-1.419-3.417-2.303-5.601-2.31h-0.118
			H42.51h-2.52c-0.318,0-0.608,0.061-0.867,0.168c-0.284,0.117-0.531,0.288-0.738,0.492c-0.233,0.231-0.415,0.501-0.54,0.784
			c-0.129,0.291-0.196,0.593-0.196,0.875v20.797h4.714V20.357v-0.378v-0.145h0.147h15.02h0.001c0.884,0.006,1.685,0.367,2.265,0.944
			c0.58,0.577,0.939,1.37,0.939,2.242H60.63v0.001h0.105v1.723v0.145h-0.003c-0.038,0.815-0.388,1.552-0.935,2.097
			C59.216,27.563,58.414,27.923,57.53,27.93L57.53,27.93L57.53,27.93z"/>
		<path fill="#F08300" d="M100.694,22.503L100.694,22.503c0-3.797,3.396-7.324,7.562-7.324h16.441c0.597,0,1.164,0.255,1.591,0.629
			c0.45,0.394,0.738,0.913,0.738,1.4v0.539c0,0.512-0.292,1.03-0.72,1.427c-0.437,0.406-1.007,0.677-1.539,0.677l-16.716-0.018
			c-1.298,0.092-2.338,1.318-2.424,2.505c0-0.002,0,0.996,0,2.102v0.348h0.382h18.657c0.593,0,1.149,0.258,1.573,0.619
			c0.481,0.408,0.787,1.095,0.787,1.523v0.414c0,0.508-0.278,1.046-0.706,1.453c-0.403,0.384-0.935,0.644-1.484,0.644h-22.122
			h-2.021v-1.844v-0.021v-0.787v-4.286H100.694z"/>
		<path fill="#FFFFFF" d="M89.064,27.93L89.064,27.93H77.045c-0.65,0-1.239,0.261-1.667,0.683c-0.427,0.422-0.692,1.003-0.692,1.644
			c0,0.641,0.265,1.223,0.692,1.644c0.427,0.422,1.017,0.684,1.667,0.684h12.018h0.001c2.186-0.001,4.17-0.878,5.61-2.294
			s2.336-3.372,2.344-5.528V24.68v-1.515V23.02c-0.002-2.156-0.893-4.113-2.328-5.533c-1.436-1.419-3.417-2.303-5.601-2.31h-0.118
			H74.043h-2.52c-0.318,0-0.608,0.061-0.867,0.168c-0.284,0.117-0.531,0.288-0.738,0.492c-0.233,0.231-0.415,0.501-0.54,0.784
			c-0.129,0.291-0.196,0.593-0.196,0.875v20.797h4.714V20.357v-0.378v-0.145h0.147h15.02h0.001c0.884,0.006,1.685,0.367,2.265,0.944
			c0.579,0.577,0.939,1.37,0.939,2.242h-0.105v0.001h0.105v1.723v0.145h-0.003c-0.038,0.815-0.388,1.552-0.935,2.097
			c-0.58,0.577-1.381,0.938-2.264,0.945L89.064,27.93L89.064,27.93z"/>
	</g>
</g>
<path fill="#FFFFFF" d="M198.175,17.49c0,0.638-0.225,1.182-0.677,1.634c-0.451,0.452-0.996,0.678-1.635,0.678
	c-0.638,0-1.184-0.226-1.637-0.678c-0.452-0.451-0.678-0.996-0.678-1.634c0-0.639,0.226-1.183,0.678-1.635
	c0.453-0.451,0.999-0.677,1.637-0.677c0.639,0,1.184,0.226,1.635,0.677C197.95,16.307,198.175,16.851,198.175,17.49 M197.918,17.49
	c0-0.566-0.201-1.051-0.602-1.453c-0.401-0.401-0.886-0.602-1.456-0.602c-0.568,0-1.052,0.201-1.453,0.602
	c-0.401,0.401-0.602,0.886-0.602,1.453c0,0.566,0.201,1.051,0.602,1.451c0.401,0.403,0.885,0.603,1.453,0.603
	c0.57,0,1.056-0.2,1.456-0.603C197.717,18.541,197.918,18.056,197.918,17.49 M195.003,16.164h0.968c0.35,0,0.601,0.064,0.754,0.192
	c0.151,0.128,0.228,0.288,0.228,0.479c0,0.201-0.08,0.371-0.238,0.508c-0.116,0.098-0.284,0.163-0.505,0.196
	c0.1,0.048,0.17,0.09,0.212,0.127c0.041,0.036,0.106,0.114,0.192,0.234c0.087,0.118,0.154,0.218,0.199,0.299l0.254,0.454h-0.398
	l-0.241-0.412c-0.185-0.319-0.326-0.51-0.422-0.572c-0.097-0.063-0.255-0.094-0.475-0.094h-0.205v1.078h-0.323V16.164
	 M195.326,16.429v0.866h0.316c0.347,0,0.578-0.018,0.691-0.052c0.082-0.023,0.15-0.072,0.203-0.147
	c0.053-0.073,0.08-0.151,0.08-0.231c0-0.119-0.045-0.222-0.136-0.308c-0.09-0.085-0.317-0.128-0.682-0.128L195.326,16.429"/>
<line fill="none" stroke="#F7F8F8" stroke-miterlimit="10" x1="208.25" y1="8.875" x2="208.25" y2="40.875"/>
</svg>
